<svg width="63" height="38" viewBox="0 0 63 38" fill="none" xmlns="http://www.w3.org/2000/svg">
<path d="M33.9547 0.993826C33.7485 1.0298 33.5502 1.92661 33.1519 2.394C32.8608 2.73065 32.4967 2.71031 32.3039 3.12708C32.2304 3.28214 32.2541 3.54833 32.1714 3.80286C32.0082 4.31366 31.4362 4.35906 31.4362 4.91501C31.4341 5.51587 31.9129 5.62999 32.3285 6.05693C32.6527 6.39929 32.6838 6.63571 33.0761 6.80242C33.4116 6.93639 33.9102 6.49728 34.3592 6.65531C34.7271 6.78431 35.0797 6.87759 35.1632 7.32488C35.2367 7.73769 35.158 8.37601 34.7111 8.30233C34.5605 8.28198 33.9068 8.02274 33.1055 8.12371C32.1369 8.2537 31.0323 8.62657 30.9242 9.90246C30.8645 10.6145 31.6111 11.4547 32.3318 11.2838C32.8295 11.1687 32.5943 10.474 32.8648 10.1374C33.2207 9.70498 35.2367 11.645 37.1097 11.645C37.8985 11.645 38.4852 11.4093 39.068 10.6886C39.1226 10.6331 39.1887 10.5155 39.2729 10.5075C39.3525 10.5155 39.4909 10.608 39.5367 10.6472C41.0449 12.0796 42.1859 14.9539 47.7315 14.9867C48.5119 14.9921 49.3996 15.4325 50.1255 16.2139C50.7725 16.9205 51.1503 18.0207 51.5185 19.1361C52.0739 20.8096 53.0676 22.438 54.5761 24.2493C54.658 24.3465 55.8999 25.4867 55.9992 25.5716C56.0146 25.5847 56.1061 25.8415 56.0742 25.9849C56.0377 27.072 55.9039 30.2306 57.8974 30.3739C58.3846 30.4027 58.2574 29.9979 58.2574 29.72C58.2561 29.1693 58.1713 28.6227 58.4163 28.0588C58.7519 27.2843 57.7044 26.9278 57.7349 25.2525C57.7567 24.0034 56.8684 24.2165 56.4182 23.2649C56.1584 22.7137 55.9276 22.4214 55.9442 21.7471C56.0457 17.9527 55.2607 15.459 54.8696 14.8465C54.5641 14.3846 54.3115 14.2012 54.5904 13.9874C56.2546 12.6882 56.6318 11.4813 56.6318 11.4813C57.5169 9.02449 58.3124 6.78059 59.4096 5.79223C59.6301 5.58781 60.1971 5.08817 60.5445 4.89244C61.5689 4.3221 62.1071 3.97602 62.4049 3.63466C62.8748 3.09335 63.2474 1.96333 62.7959 1.27862C62.2352 0.433657 61.265 1.10397 60.8376 1.40415C57.7788 3.54833 57.3279 7.33108 56.2685 9.50379C55.4232 11.2391 54.0488 12.5143 52.8198 12.6185C51.8996 12.6991 50.9059 12.479 49.9174 11.966C47.5129 10.7206 46.1975 9.11306 45.8858 8.82851C45.2401 8.23956 40.2255 2.42303 36.1616 2.18561C36.1616 2.18561 35.6572 0.992089 35.5305 0.973235C35.2336 0.927836 34.9293 1.68523 34.7111 1.7738C34.5062 1.85368 34.1615 0.953637 33.9547 0.993578M16.0661 35.7065C15.6836 35.6956 15.3588 35.3252 15.3588 34.867L15.36 19.8927H11.1821V36.3981C11.1821 37.2079 11.7369 37.8673 12.4179 37.8673H19.719C20.4044 37.8673 20.9528 37.2079 20.9528 36.3981V19.8925H16.7788L16.7754 34.867C16.7754 35.3252 16.4506 35.6956 16.0661 35.7065ZM30.0525 19.8927H23.7306C22.9814 19.8927 22.3721 20.6114 22.3721 21.5043V37.8673H26.5541V22.8578C26.5547 22.7489 26.5734 22.6411 26.6092 22.5408C26.6451 22.4404 26.6973 22.3493 26.7629 22.2728C26.8285 22.1963 26.9063 22.1358 26.9917 22.0947C27.0771 22.0537 27.1685 22.033 27.2607 22.0337C27.6507 22.0337 27.9642 22.3894 27.9726 22.8451V37.8673H32.1369V22.8451C32.1422 22.3894 32.4551 22.0339 32.8448 22.0339C33.2306 22.0339 33.5504 22.3979 33.553 22.8576V37.8673H37.7349V21.5043C37.7349 20.6114 37.1236 19.8925 36.3758 19.8925L30.0525 19.8927ZM8.3958 33.3507H4.17501V37.8673H0V19.8927H8.42226C9.17616 19.8927 9.76479 20.6164 9.76479 21.5117V31.7305C9.76529 31.9432 9.73023 32.1539 9.66163 32.3506C9.59303 32.5473 9.49223 32.726 9.36503 32.8766C9.23782 33.0271 9.0867 33.1465 8.92034 33.2279C8.75398 33.3093 8.57566 33.3511 8.39559 33.3509L8.3958 33.3507ZM5.59209 22.8891C5.59334 22.778 5.57601 22.6677 5.5411 22.5645C5.5062 22.4613 5.45439 22.3673 5.38867 22.2879C5.32294 22.2084 5.24458 22.145 5.15808 22.1014C5.07158 22.0578 4.97865 22.0348 4.8846 22.0337H4.17522V31.1249H4.8846C5.25336 31.1249 5.59545 30.7788 5.59209 30.2807V22.8891Z" fill="#E63129"/>
<path d="M44.7442 37.8672V33.3546H43.3249V37.8672H39.1515V21.5042C39.1515 20.6113 39.7607 19.8924 40.51 19.8924H47.5597C48.3103 19.8924 48.9188 20.6113 48.9188 21.5042V37.8672H44.7442ZM44.7442 31.128V22.8513C44.7344 22.394 44.4227 22.0425 44.033 22.0425C43.647 22.0425 43.3288 22.4079 43.3249 22.8647V31.128H44.7442Z" fill="#E63129"/>
</svg>
